<svg width="191" height="37" viewBox="0 0 191 37" fill="none" xmlns="http://www.w3.org/2000/svg"><rect y="3" width="191" height="16" rx="4" fill="#A71E21"/><path d="m20 22 9.6-22h5l9.6 22H39L31 2.6h2L25.2 22H20Zm4.8-4.7 1.3-3.9h11.2l1.3 3.9H24.8ZM46.5 22V0h4.1l12.8 15.8h-2V0h4.9v22h-4.1L49.4 6.2h2V22h-5ZM71.4 22V0h5v22h-5ZM81.5 22V0h4.2l9.2 15.5h-2.2l9-15.5h4.1v22h-4.6V7.3h.8l-7.2 12.4h-2.3L85.2 7.3h1V22h-4.7ZM108.2 22l9.6-22h5l9.6 22h-5.2l-8-19.4h2l-8 19.4h-5Zm4.8-4.7 1.3-3.9h11.1l1.4 3.9H113ZM134.6 22V0h5v17.9h10.9V22h-15.9ZM157.9 8.9h10.4v4h-10.4v-4Zm.3 9H170V22h-16.7V0h16.3v4h-11.4v14ZM24.1 35v-6.7h.8l3 5h-.4l3-5h.7V35h-.9v-5.3h.2L28 34.2h-.5l-2.6-4.5h.2V35h-.9Zm10-3.8h3.5v.8H34v-.8Zm.1 3h4v.8h-5v-6.7H38v.8h-3.8v5Zm5.5.8v-6.7h.8l4.4 5.5h-.4v-5.5h1V35h-.8l-4.5-5.5h.4V35h-1Zm7.3-4.5.5-2v.6c-.1 0-.3 0-.4-.2a.6.6 0 0 1-.2-.4c0-.2 0-.4.2-.5l.5-.2c.2 0 .3 0 .4.2l.2.5v.4l-.2.3-.4 1.3H47Zm4.7 4.6-1.5-.3a3 3 0 0 1-1-.6l.3-.7 1 .5a3.5 3.5 0 0 0 2.1.1c.3 0 .5-.2.6-.3l.2-.6c0-.2-.1-.4-.3-.5-.1-.2-.3-.3-.6-.4l-.7-.2-1-.2-.7-.4c-.2 0-.4-.3-.6-.5l-.2-.9c0-.3 0-.6.3-1 .1-.2.4-.5.8-.6.4-.2.9-.3 1.5-.3.4 0 .7 0 1.1.2.4 0 .7.2 1 .4l-.3.8a3.4 3.4 0 0 0-1.8-.5h-1l-.5.5a1 1 0 0 0-.2.5l.3.6.5.3.8.2a14.3 14.3 0 0 1 1.7.6l.6.5.2.9a1.7 1.7 0 0 1-1.1 1.6c-.4.2-1 .3-1.5.3Zm11.4-6.8h1V35h-1v-6.7ZM59.2 35h-1v-6.7h1V35Zm4-3h-4v-.8h4v.8Zm3.7-.8h3.5v.8h-3.5v-.8Zm.1 3h4v.8h-5v-6.7h4.8v.8H67v5Zm4.5.8 3-6.7h1l3 6.7h-1l-2.7-6.2h.4L72.5 35h-1Zm1.3-1.7.2-.7h3.8l.3.7h-4.3Zm6.7 1.7v-6.7h1v5.9H84v.8h-4.6Zm6.4 0v-5.9h-2.3v-.8h5.6v.8h-2.3V35h-1Zm9.1-6.7h1V35h-1v-6.7ZM91.2 35h-1v-6.7h1V35Zm4-3H91v-.8h4v.8Zm7.3 3c-.5 0-1 0-1.4-.2a3 3 0 0 1-1.1-.6l.3-.7 1 .5a3.5 3.5 0 0 0 2.2.1c.2 0 .4-.2.5-.3l.2-.6c0-.2 0-.4-.2-.5l-.6-.4-.8-.2-.9-.2-.8-.4c-.2 0-.4-.3-.6-.5l-.2-.9.3-1c.2-.2.5-.5.8-.6.4-.2 1-.3 1.5-.3.4 0 .8 0 1.2.2.3 0 .7.2 1 .4l-.4.8a3.4 3.4 0 0 0-1.8-.5h-1l-.5.5a1 1 0 0 0-.1.5c0 .2 0 .4.2.6l.6.3.8.2a14.5 14.5 0 0 1 1.6.6c.3.1.5.3.6.5.2.2.2.5.2.9a1.8 1.8 0 0 1-1.1 1.6c-.4.2-.9.3-1.5.3Zm6.8 0c-.9 0-1.6-.2-2-.7-.6-.5-.8-1.2-.8-2.2v-3.8h1V32c0 .7.1 1.3.4 1.6.4.4.8.5 1.4.5.6 0 1.1-.1 1.4-.5.4-.3.5-.9.5-1.6v-3.8h1V32c0 1-.3 1.7-.8 2.2-.5.5-1.2.8-2 .8Zm4.8 0v-6.7h2.6c.6 0 1.1 0 1.6.3.4.1.7.4 1 .8l.2 1.2c0 .5 0 1-.3 1.3-.2.3-.5.6-1 .8-.4.2-.9.3-1.5.3h-2l.4-.5V35h-1Zm1-2.4-.4-.5h2c.6 0 1-.1 1.4-.4.3-.2.5-.6.5-1 0-.6-.2-1-.5-1.2-.3-.2-.8-.4-1.4-.4h-2l.4-.5v4ZM121 35v-6.7h2.6c.6 0 1 0 1.5.3.4.1.7.4 1 .8.2.3.3.7.3 1.2s-.1 1-.4 1.3c-.2.3-.5.6-1 .8-.3.2-.8.3-1.4.3h-2.1l.4-.5V35h-1Zm1-2.4-.5-.5h2c.7 0 1.1-.1 1.4-.4.4-.2.5-.6.5-1 0-.6-.1-1-.5-1.2-.3-.2-.7-.4-1.4-.4h-2l.4-.5v4Zm5.8 2.4v-6.7h1v5.9h3.6v.8h-4.6Zm6.6-3.8h3.4v.8h-3.4v-.8Zm0 3h4v.8h-5v-6.7h4.8v.8h-3.8v5Zm5.5.8v-6.7h.8l3 5h-.4l3-5h.7V35h-.9v-5.3h.2l-2.6 4.5h-.4l-2.7-4.5h.2V35h-.9Zm10-3.8h3.5v.8h-3.5v-.8Zm.1 3h4v.8h-5v-6.7h4.8v.8H150v5Zm5.5.8v-6.7h.8l4.4 5.5h-.4v-5.5h1V35h-.8l-4.5-5.5h.5V35h-1Zm9.1 0v-5.9h-2.3v-.8h5.6v.8h-2.3V35h-1Z" fill="#fff"/></svg>